<svg xmlns="http://www.w3.org/2000/svg" version="1.1" xmlns:xlink="http://www.w3.org/1999/xlink" xmlns:svgjs="http://svgjs.dev/svgjs" width="1000" height="623" viewBox="0 0 1000 623"><g transform="matrix(1,0,0,1,-0.6060606060606233,11.515360421399407)"><svg viewBox="0 0 396 247" data-background-color="#c8c8c8" preserveAspectRatio="xMidYMid meet" height="623" width="1000" xmlns="http://www.w3.org/2000/svg" xmlns:xlink="http://www.w3.org/1999/xlink"><g id="tight-bounds" transform="matrix(1,0,0,1,0.2400000000000091,-0.09999999999999432)"><svg viewBox="0 0 395.52 247.2" height="247.2" width="395.52"><g><svg></svg></g><g><svg viewBox="0 0 395.52 247.2" height="247.2" width="395.52"><g transform="matrix(1,0,0,1,75.54432,59.44628635514019)"><svg viewBox="0 0 244.43135999999998 128.3074272897196" height="128.3074272897196" width="244.43135999999998"><g><svg viewBox="0 0 244.43135999999998 128.3074272897196" height="128.3074272897196" width="244.43135999999998"><g><svg viewBox="0 0 244.43135999999998 128.3074272897196" height="128.3074272897196" width="244.43135999999998"><g><svg viewBox="0 0 244.43135999999998 128.3074272897196" height="128.3074272897196" width="244.43135999999998"><g><svg viewBox="0 0 244.43135999999998 128.3074272897196" height="128.3074272897196" width="244.43135999999998"><g><svg viewBox="0 0 244.43135999999998 128.3074272897196" height="128.3074272897196" width="244.43135999999998"><g transform="matrix(1,0,0,1,0,0)"><svg width="244.43135999999998" viewBox="3.8499999046325684 -33.70000076293945 64.20000457763672 33.70000076293945" height="128.3074272897196" data-palette-color="#6b7280"><path d="M13.7-16.65L27.25 0 22 0 8.7-16.65 21.55-33.7 26.55-33.7 13.7-16.65ZM7.9-33.7L7.9 0 3.85 0 3.85-33.7 7.9-33.7ZM37.15-13.3L36.2 0 32.15 0 34.6-33.7 39.75-33.7 44.2-21.4 49.6-5.7Q52.5-13.9 55.3-21.4L55.3-21.4 59.95-33.7 65.1-33.7 68.05 0 64 0 62.85-13.3 61.65-28.25Q59-20.85 56.2-13.3L56.2-13.3 51.5-0.75 47.65-0.75 43.2-13.3 38.1-27.95Q38.1-26 37.15-13.3L37.15-13.3Z" opacity="1" transform="matrix(1,0,0,1,0,0)" fill="#6b7280" class="undefined-text-0" data-fill-palette-color="primary" id="text-0"></path></svg></g></svg></g></svg></g></svg></g><g></g></svg></g></svg></g></svg></g><g><path d="M151.686 29.156A122.216 122.216 0 0 1 243.834 29.156L232.263 29.156A110.645 110.645 0 0 0 163.257 29.156L151.686 29.156M151.686 218.044A122.216 122.216 0 0 0 243.834 218.044L232.263 218.044A110.645 110.645 0 0 1 163.257 218.044L151.686 218.044" fill="#6b7280" stroke="transparent" data-fill-palette-color="tertiary"></path></g></svg></g><defs></defs></svg><rect width="395.52" height="247.2" fill="none" stroke="none" visibility="hidden"></rect></g></svg></g></svg>